<svg xmlns="http://www.w3.org/2000/svg" width="395.658" height="86.507" viewBox="0 0 395.658 86.507">
  <g id="Group_1" data-name="Group 1" transform="translate(-112.358 -115.082)">
    <g id="vaccine" transform="translate(112.358 115.082)">
      <path id="Path_1" data-name="Path 1" d="M100.745,111.585l-10.781.9a11.012,11.012,0,0,0,.144-1.763V79.844A10.942,10.942,0,0,0,79.178,68.915h-.947V64.06h1.6a3.718,3.718,0,0,0,3.714-3.714V55.9a3.718,3.718,0,0,0-3.714-3.714H60.656A3.718,3.718,0,0,0,56.942,55.9v4.445a3.718,3.718,0,0,0,3.714,3.714h1.6v4.855h-.947A10.942,10.942,0,0,0,50.384,79.844V93.132l-2.33-2.288a8.231,8.231,0,0,0-5.791-2.367H25.616a4.14,4.14,0,0,0-4.129-3.945H1.592a1.592,1.592,0,0,0,0,3.183h19.9a.956.956,0,0,1,.955.955v27.755a.956.956,0,0,1-.955.955H1.592a1.592,1.592,0,0,0,0,3.183h19.9a4.143,4.143,0,0,0,4.138-4.138v-.015L46.8,134.375A18.136,18.136,0,0,0,63.852,137.9l18.8-5.717a1.592,1.592,0,1,0-.926-3.045l-18.8,5.717a14.938,14.938,0,0,1-14.064-2.91L27.611,113.922a8.224,8.224,0,0,0-1.986-1.24V91.661H42.262a5.064,5.064,0,0,1,3.562,1.456c5.17,5.065,11.77,11.6,16.626,16.322a3.78,3.78,0,1,1-5.35,5.342l-6.986-7.139a1.592,1.592,0,1,0-2.275,2.226l6.986,7.139a7.017,7.017,0,0,0,8.92.868l37.266-3.118a4.12,4.12,0,0,1,1.543,8.048l-13.725,4.174a1.592,1.592,0,1,0,.926,3.045l13.728-4.175a7.3,7.3,0,0,0-2.737-14.265ZM60.656,60.877a.531.531,0,0,1-.531-.531V55.9a.531.531,0,0,1,.531-.531h19.18a.531.531,0,0,1,.531.531v4.445a.531.531,0,0,1-.531.531H60.656Zm14.392,3.184v4.854H65.443V64.061Zm11.876,46.663a7.751,7.751,0,0,1-.272,2.04l-20.282,1.7a7.028,7.028,0,0,0-1.689-7.294l-4.431-4.35H86.924Zm0-22.973H72.912a1.592,1.592,0,0,0,0,3.183H86.924v8.7H57.006l-3.439-3.376V90.935H65.484a1.592,1.592,0,1,0,0-3.183H53.567V79.844A7.755,7.755,0,0,1,61.313,72.1H79.178a7.755,7.755,0,0,1,7.746,7.746Z" transform="translate(0 -52.187)" fill="#7b8cde"/>
    </g>
    <text id="VaccinateMe." transform="translate(221.016 190.099)" fill="#7b8cde" font-size="44" font-family="Lexend-Medium, Lexend" font-weight="500"><tspan x="0" y="0">VaccinateMe.</tspan></text>
  </g>
</svg>
